# xmcd
#
# Track frame offsets:
#	150
#	15260
#	37957
#	55264
#	77057
#	93632
#	113330
#	129906
#	153081
#	166967
#	184450
#	198682
#	215400
#	228040
#	248653
#	264529
#	282655
#	302142
#	318355
#
# Disc length: 4418
#
# Revision: 2
# Processed by: cddbd v1.5.1PL0 Copyright (c) Steve Scherf et al.
# Submitted via: CDex 1.40Release
# Normalized: r1:TDELIM( - )
#
DISCID=f7114013
DTITLE=D.A - That`s Country
DYEAR=2002
DGENRE=Country
TTITLE0=Jo Dee Messina - That`s the way
TTITLE1=LeAnn Rimes - How do i live
TTITLE2=Dixie Chicks - Ready to run
TTITLE3=Tim McCraw - Please remember me
TTITLE4=Jill Johnson - What`s wrong with you
TTITLE5=Chip Taylor - Dont get better than this (The J-Z-Zoom song)
TTITLE6=Sherrie Austin - In the meantime
TTITLE7=Willie Nelson - Me and my drummer
TTITLE8=Rhonda Vincent - Drivin` nails in my coffin
TTITLE9=Ester Brohus - Come to me
TTITLE10=Hal Ketchum - (She`s something) You`re everything
TTITLE11=Emmylou Harris feat. Dave Matthews - My antonia
TTITLE12=Dale Watson - Hey driver
TTITLE13=David Hall - Riding with private Malone
TTITLE14=Steve Holy - Good morning beautiful
TTITLE15=Henning Kvitnes - Deeper
TTITLE16=Montgomery Gentry - She couldn`t change me
TTITLE17=Junior Brown - A long walk back to San Antone
TTITLE18=Andreas Silver - She`s every woman
EXTD=YEAR: 2002 ID3G: 2
EXTT0=
EXTT1=
EXTT2=
EXTT3=
EXTT4=
EXTT5=
EXTT6=
EXTT7=
EXTT8=
EXTT9=
EXTT10=
EXTT11=
EXTT12=
EXTT13=
EXTT14=
EXTT15=
EXTT16=
EXTT17=
EXTT18=
PLAYORDER=
